<svg xmlns="http://www.w3.org/2000/svg" viewBox="0 0 75 75" stroke-linejoin="round" stroke-miterlimit="1.41421">
  <circle cx="37.5" cy="37.5" r="37.5" fill="#8f98a3"/>
  <path d="M54.173 24.675v34.2H20.828v-42.75h24.795l8.55 8.55Zm-10.059-5.513H23.888v36.675h27.225V26.183h-6.999v-7.021Z" fill="#fff"/>
  <path d="M39.17 35.504a.55.55 0 0 1 .557.557v8.908h1.67a.55.55 0 0 1 .557.556v2.784a.55.55 0 0 1-.557.557h-7.794a.55.55 0 0 1-.557-.557v-2.784a.55.55 0 0 1 .557-.556h1.67v-5.568h-1.67a.55.55 0 0 1-.557-.556v-2.784a.55.55 0 0 1 .557-.557h5.567Zm0-6.124a.55.55 0 0 1 .557.557v2.783a.55.55 0 0 1-.557.557h-3.34a.55.55 0 0 1-.557-.557v-2.783a.55.55 0 0 1 .557-.557h3.34Z" fill="#fff"/>
</svg>
