<?xml version="1.0" encoding="UTF-8" standalone="no"?><!DOCTYPE svg PUBLIC "-//W3C//DTD SVG 1.1//EN" "http://www.w3.org/Graphics/SVG/1.1/DTD/svg11.dtd"><svg width="100%" height="100%" viewBox="0 0 75 75" version="1.1" xmlns="http://www.w3.org/2000/svg" xmlns:xlink="http://www.w3.org/1999/xlink" xml:space="preserve" style="fill-rule:evenodd;clip-rule:evenodd;stroke-linejoin:round;stroke-miterlimit:1.41421;"><circle cx="37.5" cy="37.5" r="37.5" style="fill:#8f98a3;"/><path d="M54.173,24.675l0,34.2l-33.345,0l0,-42.75l24.795,0l8.55,8.55Zm-10.059,-5.513l-20.226,0l0,36.675l27.225,0l0,-29.654l-6.999,0l0,-7.021Z" style="fill:#fff;"/><path d="M39.17,35.504c0.313,0 0.557,0.244 0.557,0.557l0,8.908l1.67,0c0.313,0 0.557,0.243 0.557,0.556l0,2.784c0,0.313 -0.244,0.557 -0.557,0.557l-7.794,0c-0.313,0 -0.557,-0.244 -0.557,-0.557l0,-2.784c0,-0.313 0.244,-0.556 0.557,-0.556l1.67,0l0,-5.568l-1.67,0c-0.313,0 -0.557,-0.243 -0.557,-0.556l0,-2.784c0,-0.313 0.244,-0.557 0.557,-0.557l5.567,0Zm0,-6.124c0.313,0 0.557,0.244 0.557,0.557l0,2.783c0,0.314 -0.244,0.557 -0.557,0.557l-3.34,0c-0.313,0 -0.557,-0.243 -0.557,-0.557l0,-2.783c0,-0.313 0.244,-0.557 0.557,-0.557l3.34,0Z" style="fill:#fff;"/></svg>